<svg xmlns="http://www.w3.org/2000/svg" version="1.1" xmlns:xlink="http://www.w3.org/1999/xlink" xmlns:svgjs="http://svgjs.dev/svgjs" width="1500" height="318" viewBox="0 0 1500 318"><g transform="matrix(1,0,0,1,-0.9090909090909918,0.7786322792192948)"><svg viewBox="0 0 396 84" data-background-color="#ebe9ef" preserveAspectRatio="xMidYMid meet" height="318" width="1500" xmlns="http://www.w3.org/2000/svg" xmlns:xlink="http://www.w3.org/1999/xlink"><g id="tight-bounds" transform="matrix(1,0,0,1,0.2400000000000091,-0.20567645111452748)"><svg viewBox="0 0 395.52 84.41135290222908" height="84.41135290222908" width="395.52"><g><svg viewBox="0 0 395.52 84.41135290222908" height="84.41135290222908" width="395.52"><g><svg viewBox="0 0 395.52 84.41135290222908" height="84.41135290222908" width="395.52"><g id="textblocktransform"><svg viewBox="0 0 395.52 84.41135290222908" height="84.41135290222908" width="395.52" id="textblock"><g><svg viewBox="0 0 395.52 84.41135290222908" height="84.41135290222908" width="395.52"><g transform="matrix(1,0,0,1,0,0)"><svg width="395.52" viewBox="4.5 -36.75 226.53 48.35" height="84.41135290222908" data-palette-color="url(#77feacba-6530-4ace-9013-718cf4a7b843)"></svg></g></svg></g></svg></g></svg></g></svg></g><defs></defs><mask id="5e184b9b-24aa-44c4-8ab2-6c6c61825a71"><g id="SvgjsG6233"><svg viewBox="0 0 395.52 84.41135290222908" height="84.41135290222908" width="395.52"><g><svg viewBox="0 0 395.52 84.41135290222908" height="84.41135290222908" width="395.52"><g><svg viewBox="0 0 395.52 84.41135290222908" height="84.41135290222908" width="395.52"><g id="SvgjsG6232"><svg viewBox="0 0 395.52 84.41135290222908" height="84.41135290222908" width="395.52" id="SvgjsSvg6231"><g><svg viewBox="0 0 395.52 84.41135290222908" height="84.41135290222908" width="395.52"><g transform="matrix(1,0,0,1,0,0)"><svg width="395.52" viewBox="4.5 -36.75 226.53 48.35" height="84.41135290222908" data-palette-color="url(#77feacba-6530-4ace-9013-718cf4a7b843)"><path d="M9.25 0L4.5 0 4.5-35 9.25-35 9.25 0ZM22.25 0L17.75 0 17.75-26 22.1-26 22.1-21.65Q23.5-23.75 25.65-25.18 27.8-26.6 30.55-26.6L30.55-26.6Q33.65-26.6 35.62-25.1 37.6-23.6 38.4-21.1L38.4-21.1Q39.95-23.4 42.07-25 44.2-26.6 47.35-26.6L47.35-26.6Q51.6-26.6 53.67-23.93 55.75-21.25 55.75-16.95L55.75-16.95 55.75 0 51.25 0 51.25-16.6Q51.25-19.3 50-20.98 48.75-22.65 46.55-22.65L46.55-22.65Q44.3-22.65 42.37-20.98 40.45-19.3 39-17.05L39-17.05 39 0 34.5 0 34.5-16.6Q34.5-19.3 33.25-20.98 32-22.65 29.8-22.65L29.8-22.65Q27.6-22.65 25.65-21.03 23.7-19.4 22.25-17.2L22.25-17.2 22.25 0ZM73.45 0.6L73.45 0.6Q70.2 0.6 67.55-1.05 64.9-2.7 63.32-5.73 61.75-8.75 61.75-12.85L61.75-12.85Q61.75-16.75 63.32-19.85 64.9-22.95 67.67-24.78 70.45-26.6 74.05-26.6L74.05-26.6Q76.3-26.6 78.12-25.83 79.95-25.05 81.3-23.9L81.3-23.9 81.3-26 85.4-26 85.4-6.3Q85.4-4.4 86.32-3.83 87.25-3.25 88.34-3.25L88.34-3.25 87.4 0.25Q82.59 0.25 81.59-3.65L81.59-3.65Q80.45-2.05 78.47-0.73 76.5 0.6 73.45 0.6ZM74.45-3.4L74.45-3.4Q76.34-3.4 78.05-4.33 79.75-5.25 80.9-6.65L80.9-6.65 80.9-20.6Q79.55-21.55 77.92-22.13 76.3-22.7 74.5-22.7L74.5-22.7Q72.09-22.7 70.27-21.48 68.45-20.25 67.4-18.07 66.34-15.9 66.34-13L66.34-13Q66.34-10.2 67.4-8.03 68.45-5.85 70.3-4.63 72.15-3.4 74.45-3.4ZM103.39 11.6L103.39 11.6Q101.09 11.6 98.92 11.05 96.74 10.5 95.04 9.4L95.04 9.4 96.69 5.5Q97.89 6.45 99.49 7.08 101.09 7.7 103.39 7.7L103.39 7.7Q106.94 7.7 108.97 5.83 110.99 3.95 110.99-0.15L110.99-0.15 110.99-3.35Q109.99-2.15 108.12-1.07 106.24 0 103.64 0L103.64 0Q100.69 0 98.04-1.53 95.39-3.05 93.74-6 92.09-8.95 92.09-13.1L92.09-13.1Q92.09-17 93.72-20.05 95.34-23.1 98.09-24.85 100.84-26.6 104.14-26.6L104.14-26.6Q106.34-26.6 108.14-25.85 109.94-25.1 111.24-24L111.24-24 111.24-26 115.34-26 115.34-0.6Q115.34 3.7 113.84 6.4 112.34 9.1 109.67 10.35 106.99 11.6 103.39 11.6ZM104.64-4L104.64-4Q106.64-4 108.24-4.9 109.84-5.8 110.84-7L110.84-7 110.84-20.6Q109.74-21.4 108.19-22.05 106.64-22.7 104.59-22.7L104.59-22.7Q102.54-22.7 100.74-21.6 98.94-20.5 97.82-18.43 96.69-16.35 96.69-13.35L96.69-13.35Q96.69-10.5 97.82-8.4 98.94-6.3 100.74-5.15 102.54-4 104.64-4ZM127.59 0L123.09 0 123.09-26 127.59-26 127.59 0ZM125.34-30.45L125.34-30.45Q124.04-30.45 123.12-31.4 122.19-32.35 122.19-33.6L122.19-33.6Q122.19-35.05 123.04-35.9 123.89-36.75 125.34-36.75L125.34-36.75Q126.64-36.75 127.56-35.83 128.49-34.9 128.49-33.6L128.49-33.6Q128.49-32.2 127.64-31.33 126.79-30.45 125.34-30.45ZM140.09 0L135.59 0 135.59-26 139.94-26 139.94-21.65Q141.34-23.75 143.51-25.18 145.69-26.6 148.69-26.6L148.69-26.6Q153.09-26.6 155.26-23.95 157.44-21.3 157.44-16.95L157.44-16.95 157.44 0 152.94 0 152.94-16.45Q152.94-19.25 151.61-20.95 150.29-22.65 147.94-22.65L147.94-22.65Q145.64-22.65 143.59-21.03 141.54-19.4 140.09-17.2L140.09-17.2 140.09 0ZM175.59 0.6L175.59 0.6Q169.99 0.6 166.71-2.98 163.44-6.55 163.44-13L163.44-13Q163.44-16.9 164.91-19.98 166.38-23.05 169.03-24.83 171.69-26.6 175.19-26.6L175.19-26.6Q178.94-26.6 181.41-24.98 183.88-23.35 185.13-20.6 186.38-17.85 186.38-14.55L186.38-14.55Q186.38-12.8 186.24-11.15L186.24-11.15 168.03-11.15Q168.49-7.5 170.59-5.45 172.69-3.4 176.13-3.4L176.13-3.4Q178.38-3.4 180.19-3.88 181.99-4.35 183.63-5.1L183.63-5.1 184.69-1.25Q182.88-0.45 180.63 0.08 178.38 0.6 175.59 0.6ZM167.99-14.8L167.99-14.8 182.24-14.8Q182.24-18.6 180.34-20.65 178.44-22.7 175.09-22.7L175.09-22.7Q172.19-22.7 170.28-20.68 168.38-18.65 167.99-14.8ZM221.28-1.25L216.93 0.5 213.03-9.5 196.83-9.5 192.93 0.4 188.88-1.25 202.58-35 207.78-35 221.28-1.25ZM204.93-30.3L198.33-13.5 211.48-13.5 204.93-30.3ZM231.03 0L226.28 0 226.28-35 231.03-35 231.03 0Z" opacity="1" transform="matrix(1,0,0,1,0,0)" fill="white" class="wordmark-text-0" id="SvgjsPath6230"></path></svg></g></svg></g></svg></g></svg></g></svg></g><defs><mask></mask></defs></svg><rect width="395.52" height="84.41135290222908" fill="black" stroke="none" visibility="hidden"></rect></g></mask><linearGradient x1="0" x2="1" y1="0.578" y2="0.595" id="77feacba-6530-4ace-9013-718cf4a7b843"><stop stop-color="#6ee2f5" offset="0"></stop><stop stop-color="#6454f0" offset="1"></stop></linearGradient><rect width="395.52" height="84.41135290222908" fill="url(#77feacba-6530-4ace-9013-718cf4a7b843)" mask="url(#5e184b9b-24aa-44c4-8ab2-6c6c61825a71)" data-fill-palette-color="primary"></rect></svg><rect width="395.52" height="84.41135290222908" fill="none" stroke="none" visibility="hidden"></rect></g></svg></g></svg>